Video
Codec ID/Hint : XviD
Duration : 1h 33mn
Bit rate : 932 Kbps
Width : 640 pixels
Height : 352 pixels
Display aspect ratio : 16:9
Frame rate : 23.976 fps
Color space : YUV
Chroma subsampling : 4:2:0
Bit depth : 8 bits
Scan type : Progressive
Bits/(Pixel*Frame) : 0.172
Stream size : 623 MiB (89%)
Writing library : XviD 57


Audio
ID : 1
Format : MPEG Audio
Format version : Version 1
Format profile : Layer 3
Mode : Joint stereo
Mode extension : MS Stereo
Codec ID : 55
Codec ID/Hint : MP3
Duration : 1h 33mn
Bit rate mode : Variable
Bit rate : 103 Kbps
Nominal bit rate : 112 Kbps
Channel(s) : 2 channels
Sampling rate : 48.0 KHz
Stream size : 69.2 MiB (10%)
Alignment : Aligned on interleaves
Interleave, duration : 24 ms (0.58 video frame)
Interleave, preload duration : 178 ms
Writing library : LAME3.97

Trailer
[url][/url]

IMDB 
http://www.imdb.com/title/tt1328910/

Shout out to noir and all my friends @ 1337x.org and extratorrent

 
http://leetleech.org/images/58265539671003858383.png
 
http://leetleech.org/images/54093341745353448410.png
 
http://leetleech.org/images/76025001088101744356.png